<mxfile host="app.diagrams.net" modified="2023-02-07T04:11:36.284Z" agent="5.0 (Windows NT 10.0; Win64; x64) AppleWebKit/537.36 (KHTML, like Gecko) Chrome/109.0.0.0 Safari/537.36" etag="ygcqYaTxqnVAyZKSR5f7" version="20.8.17" type="github">
  <diagram id="C5RBs43oDa-KdzZeNtuy" name="Page-1">
    <mxGraphModel dx="1434" dy="788" grid="1" gridSize="10" guides="1" tooltips="1" connect="1" arrows="1" fold="1" page="1" pageScale="1" pageWidth="827" pageHeight="1169" math="0" shadow="0">
      <root>
        <mxCell id="WIyWlLk6GJQsqaUBKTNV-0" />
        <mxCell id="WIyWlLk6GJQsqaUBKTNV-1" parent="WIyWlLk6GJQsqaUBKTNV-0" />
        <mxCell id="8u9az_-6E9huGCgLwTI3-13" value="is" style="edgeStyle=orthogonalEdgeStyle;rounded=0;orthogonalLoop=1;jettySize=auto;html=1;entryX=0;entryY=0.5;entryDx=0;entryDy=0;" parent="WIyWlLk6GJQsqaUBKTNV-1" source="8u9az_-6E9huGCgLwTI3-10" target="8u9az_-6E9huGCgLwTI3-12" edge="1">
          <mxGeometry relative="1" as="geometry" />
        </mxCell>
        <mxCell id="_euS-0L5MUva1uoUSyzm-1" value="" style="edgeStyle=orthogonalEdgeStyle;rounded=0;orthogonalLoop=1;jettySize=auto;html=1;" parent="WIyWlLk6GJQsqaUBKTNV-1" source="8u9az_-6E9huGCgLwTI3-10" target="_euS-0L5MUva1uoUSyzm-0" edge="1">
          <mxGeometry relative="1" as="geometry" />
        </mxCell>
        <mxCell id="8u9az_-6E9huGCgLwTI3-10" value="request_type" style="strokeWidth=2;html=1;shape=mxgraph.flowchart.decision;whiteSpace=wrap;" parent="WIyWlLk6GJQsqaUBKTNV-1" vertex="1">
          <mxGeometry x="108" y="490" width="100" height="100" as="geometry" />
        </mxCell>
        <mxCell id="8u9az_-6E9huGCgLwTI3-15" value="And" style="edgeStyle=orthogonalEdgeStyle;rounded=0;orthogonalLoop=1;jettySize=auto;html=1;" parent="WIyWlLk6GJQsqaUBKTNV-1" source="8u9az_-6E9huGCgLwTI3-12" target="8u9az_-6E9huGCgLwTI3-14" edge="1">
          <mxGeometry relative="1" as="geometry" />
        </mxCell>
        <mxCell id="8u9az_-6E9huGCgLwTI3-12" value="AccessToken" style="rounded=1;whiteSpace=wrap;html=1;fontSize=12;glass=0;strokeWidth=1;shadow=0;" parent="WIyWlLk6GJQsqaUBKTNV-1" vertex="1">
          <mxGeometry x="258" y="520" width="120" height="40" as="geometry" />
        </mxCell>
        <mxCell id="8u9az_-6E9huGCgLwTI3-17" value="is not REFRESH_TOKEN" style="edgeStyle=orthogonalEdgeStyle;rounded=0;orthogonalLoop=1;jettySize=auto;html=1;" parent="WIyWlLk6GJQsqaUBKTNV-1" source="8u9az_-6E9huGCgLwTI3-14" target="8u9az_-6E9huGCgLwTI3-16" edge="1">
          <mxGeometry relative="1" as="geometry">
            <Array as="points">
              <mxPoint x="640" y="540" />
              <mxPoint x="640" y="540" />
            </Array>
          </mxGeometry>
        </mxCell>
        <mxCell id="8u9az_-6E9huGCgLwTI3-14" value="grant_type" style="strokeWidth=2;html=1;shape=mxgraph.flowchart.decision;whiteSpace=wrap;" parent="WIyWlLk6GJQsqaUBKTNV-1" vertex="1">
          <mxGeometry x="458" y="490" width="100" height="100" as="geometry" />
        </mxCell>
        <mxCell id="FqvtAqR_Rkzib5x8kWpQ-4" value="" style="edgeStyle=orthogonalEdgeStyle;rounded=0;orthogonalLoop=1;jettySize=auto;html=1;" parent="WIyWlLk6GJQsqaUBKTNV-1" source="8u9az_-6E9huGCgLwTI3-16" target="FqvtAqR_Rkzib5x8kWpQ-3" edge="1">
          <mxGeometry relative="1" as="geometry" />
        </mxCell>
        <mxCell id="8u9az_-6E9huGCgLwTI3-16" value="Password" style="rounded=1;whiteSpace=wrap;html=1;fontSize=12;glass=0;strokeWidth=1;shadow=0;" parent="WIyWlLk6GJQsqaUBKTNV-1" vertex="1">
          <mxGeometry x="718" y="520" width="120" height="40" as="geometry" />
        </mxCell>
        <mxCell id="FqvtAqR_Rkzib5x8kWpQ-2" value="" style="edgeStyle=orthogonalEdgeStyle;rounded=0;orthogonalLoop=1;jettySize=auto;html=1;entryX=0.5;entryY=0;entryDx=0;entryDy=0;entryPerimeter=0;" parent="WIyWlLk6GJQsqaUBKTNV-1" source="FqvtAqR_Rkzib5x8kWpQ-0" target="8u9az_-6E9huGCgLwTI3-10" edge="1">
          <mxGeometry relative="1" as="geometry">
            <Array as="points">
              <mxPoint x="153" y="490" />
            </Array>
            <mxPoint x="153" y="360" as="targetPoint" />
          </mxGeometry>
        </mxCell>
        <mxCell id="FqvtAqR_Rkzib5x8kWpQ-0" value="enable_&lt;br&gt;custom_&lt;br&gt;tokens" style="rounded=1;whiteSpace=wrap;html=1;absoluteArcSize=1;arcSize=14;strokeWidth=2;" parent="WIyWlLk6GJQsqaUBKTNV-1" vertex="1">
          <mxGeometry x="108" y="320" width="100" height="100" as="geometry" />
        </mxCell>
        <mxCell id="_euS-0L5MUva1uoUSyzm-4" style="edgeStyle=orthogonalEdgeStyle;rounded=0;orthogonalLoop=1;jettySize=auto;html=1;entryX=0;entryY=0.75;entryDx=0;entryDy=0;" parent="WIyWlLk6GJQsqaUBKTNV-1" source="FqvtAqR_Rkzib5x8kWpQ-3" target="_euS-0L5MUva1uoUSyzm-3" edge="1">
          <mxGeometry relative="1" as="geometry" />
        </mxCell>
        <mxCell id="FqvtAqR_Rkzib5x8kWpQ-3" value="Create &lt;br&gt;HTTP &lt;br&gt;Client" style="rounded=1;whiteSpace=wrap;html=1;absoluteArcSize=1;arcSize=14;strokeWidth=2;" parent="WIyWlLk6GJQsqaUBKTNV-1" vertex="1">
          <mxGeometry x="748" y="640" width="60" height="55" as="geometry" />
        </mxCell>
        <mxCell id="FqvtAqR_Rkzib5x8kWpQ-15" value="request_type =&amp;nbsp;stsuu.getContextAttributes().getAttributeValuesByNameAndType(&quot;request_type&quot;, &quot;urn:ibm:names:ITFIM:oauth:request&quot;);" style="shape=tape;whiteSpace=wrap;html=1;strokeWidth=2;size=0.19" parent="WIyWlLk6GJQsqaUBKTNV-1" vertex="1">
          <mxGeometry x="285" y="34" width="810" height="65" as="geometry" />
        </mxCell>
        <mxCell id="FqvtAqR_Rkzib5x8kWpQ-16" value="grant_type =&amp;nbsp;stsuu.getContextAttributes().getAttributeValuesByNameAndType(&quot;grant_type&quot;, &quot;urn:ibm:names:ITFIM:oauth:body:param&quot;);" style="shape=tape;whiteSpace=wrap;html=1;strokeWidth=2;size=0.19" parent="WIyWlLk6GJQsqaUBKTNV-1" vertex="1">
          <mxGeometry x="285" y="94" width="810" height="65" as="geometry" />
        </mxCell>
        <mxCell id="FqvtAqR_Rkzib5x8kWpQ-17" value="username =&amp;nbsp;stsuu.getContextAttributes().getAttributeValuesByNameAndType(&quot;username&quot;, &quot;urn:ibm:names:ITFIM:oauth:body:param&quot;);&lt;br&gt;or&lt;br&gt;username =&amp;nbsp;stsuu.getContextAttributes().getAttributeValuesByNameAndType(&quot;username&quot;, &quot;urn:ibm:names:ITFIM:oauth:request&quot;);" style="shape=tape;whiteSpace=wrap;html=1;strokeWidth=2;size=0.19" parent="WIyWlLk6GJQsqaUBKTNV-1" vertex="1">
          <mxGeometry x="285" y="159" width="810" height="65" as="geometry" />
        </mxCell>
        <mxCell id="FqvtAqR_Rkzib5x8kWpQ-18" value="password =&amp;nbsp;stsuu.getContextAttributes().getAttributeValuesByNameAndType(&quot;password&quot;, &quot;urn:ibm:names:ITFIM:oauth:body:param&quot;);" style="shape=tape;whiteSpace=wrap;html=1;strokeWidth=2;size=0.19" parent="WIyWlLk6GJQsqaUBKTNV-1" vertex="1">
          <mxGeometry x="285" y="219" width="810" height="65" as="geometry" />
        </mxCell>
        <mxCell id="_euS-0L5MUva1uoUSyzm-2" style="edgeStyle=orthogonalEdgeStyle;rounded=0;orthogonalLoop=1;jettySize=auto;html=1;entryX=0;entryY=0.5;entryDx=0;entryDy=0;" parent="WIyWlLk6GJQsqaUBKTNV-1" source="_euS-0L5MUva1uoUSyzm-0" target="FqvtAqR_Rkzib5x8kWpQ-3" edge="1">
          <mxGeometry relative="1" as="geometry" />
        </mxCell>
        <mxCell id="_euS-0L5MUva1uoUSyzm-0" value="authorization" style="rounded=1;whiteSpace=wrap;html=1;fontSize=12;glass=0;strokeWidth=1;shadow=0;" parent="WIyWlLk6GJQsqaUBKTNV-1" vertex="1">
          <mxGeometry x="98" y="647" width="120" height="40" as="geometry" />
        </mxCell>
        <mxCell id="_euS-0L5MUva1uoUSyzm-8" value="if grant_type =&amp;nbsp;client_credentials" style="edgeStyle=orthogonalEdgeStyle;rounded=0;orthogonalLoop=1;jettySize=auto;html=1;" parent="WIyWlLk6GJQsqaUBKTNV-1" source="_euS-0L5MUva1uoUSyzm-3" edge="1">
          <mxGeometry relative="1" as="geometry">
            <mxPoint x="1035" y="750" as="targetPoint" />
          </mxGeometry>
        </mxCell>
        <mxCell id="_euS-0L5MUva1uoUSyzm-3" value="ClientID" style="rounded=1;whiteSpace=wrap;html=1;fontSize=12;glass=0;strokeWidth=1;shadow=0;" parent="WIyWlLk6GJQsqaUBKTNV-1" vertex="1">
          <mxGeometry x="975" y="638" width="120" height="40" as="geometry" />
        </mxCell>
        <mxCell id="_euS-0L5MUva1uoUSyzm-6" value="clientId =&amp;nbsp;stsuu.getContextAttributes().getAttributeValuesByNameAndType(&quot;client_id&quot;, &quot;urn:ibm:names:ITFIM:oauth:body:param&quot;);&lt;br&gt;or&lt;br&gt;clientId =&amp;nbsp;stsuu.getContextAttributes().getAttributeValuesByNameAndType(&quot;client_id&quot;, &quot;urn:ibm:names:ITFIM:oauth:query:param&quot;);" style="shape=tape;whiteSpace=wrap;html=1;strokeWidth=2;size=0.19" parent="WIyWlLk6GJQsqaUBKTNV-1" vertex="1">
          <mxGeometry x="286" y="278" width="810" height="92" as="geometry" />
        </mxCell>
        <mxCell id="_euS-0L5MUva1uoUSyzm-11" value="" style="edgeStyle=orthogonalEdgeStyle;rounded=0;orthogonalLoop=1;jettySize=auto;html=1;" parent="WIyWlLk6GJQsqaUBKTNV-1" source="_euS-0L5MUva1uoUSyzm-9" target="_euS-0L5MUva1uoUSyzm-10" edge="1">
          <mxGeometry relative="1" as="geometry" />
        </mxCell>
        <mxCell id="_euS-0L5MUva1uoUSyzm-9" value="username = &lt;br&gt;client_id;" style="rounded=1;whiteSpace=wrap;html=1;fontSize=12;glass=0;strokeWidth=1;shadow=0;" parent="WIyWlLk6GJQsqaUBKTNV-1" vertex="1">
          <mxGeometry x="975" y="750" width="120" height="40" as="geometry" />
        </mxCell>
        <mxCell id="_euS-0L5MUva1uoUSyzm-13" value="getTokens(client_id, username)" style="edgeStyle=orthogonalEdgeStyle;rounded=0;orthogonalLoop=1;jettySize=auto;html=1;entryX=1;entryY=0.5;entryDx=0;entryDy=0;entryPerimeter=0;" parent="WIyWlLk6GJQsqaUBKTNV-1" source="_euS-0L5MUva1uoUSyzm-10" target="_euS-0L5MUva1uoUSyzm-12" edge="1">
          <mxGeometry relative="1" as="geometry" />
        </mxCell>
        <mxCell id="_euS-0L5MUva1uoUSyzm-10" value="OAuth&lt;br&gt;Mapping&lt;br&gt;ExtUtils" style="rounded=1;whiteSpace=wrap;html=1;absoluteArcSize=1;arcSize=14;strokeWidth=2;" parent="WIyWlLk6GJQsqaUBKTNV-1" vertex="1">
          <mxGeometry x="1005" y="850" width="60" height="55" as="geometry" />
        </mxCell>
        <mxCell id="_euS-0L5MUva1uoUSyzm-16" value="Number of Tokens" style="edgeStyle=orthogonalEdgeStyle;rounded=0;orthogonalLoop=1;jettySize=auto;html=1;" parent="WIyWlLk6GJQsqaUBKTNV-1" source="_euS-0L5MUva1uoUSyzm-12" edge="1">
          <mxGeometry relative="1" as="geometry">
            <mxPoint x="560" y="875" as="targetPoint" />
          </mxGeometry>
        </mxCell>
        <mxCell id="_euS-0L5MUva1uoUSyzm-12" value="" style="strokeWidth=2;html=1;shape=mxgraph.flowchart.multi-document;whiteSpace=wrap;" parent="WIyWlLk6GJQsqaUBKTNV-1" vertex="1">
          <mxGeometry x="710" y="845" width="88" height="60" as="geometry" />
        </mxCell>
        <mxCell id="_euS-0L5MUva1uoUSyzm-14" value="&lt;div&gt;var max_oauth_grants_per_user_per_client = 20;&lt;/div&gt;&lt;div&gt;var limit_method = &quot;strict&quot;; // &quot;lru&quot; | &quot;strict&quot;&lt;/div&gt;" style="shape=tape;whiteSpace=wrap;html=1;strokeWidth=2;size=0.19" parent="WIyWlLk6GJQsqaUBKTNV-1" vertex="1">
          <mxGeometry x="490" y="369" width="340" height="48" as="geometry" />
        </mxCell>
        <mxCell id="_euS-0L5MUva1uoUSyzm-18" value="YES" style="edgeStyle=orthogonalEdgeStyle;rounded=0;orthogonalLoop=1;jettySize=auto;html=1;" parent="WIyWlLk6GJQsqaUBKTNV-1" source="_euS-0L5MUva1uoUSyzm-15" target="_euS-0L5MUva1uoUSyzm-17" edge="1">
          <mxGeometry relative="1" as="geometry" />
        </mxCell>
        <mxCell id="_euS-0L5MUva1uoUSyzm-15" value="&amp;gt; 20" style="strokeWidth=2;html=1;shape=mxgraph.flowchart.decision;whiteSpace=wrap;" parent="WIyWlLk6GJQsqaUBKTNV-1" vertex="1">
          <mxGeometry x="458" y="825" width="100" height="100" as="geometry" />
        </mxCell>
        <mxCell id="_euS-0L5MUva1uoUSyzm-17" value="Error" style="rounded=1;whiteSpace=wrap;html=1;fontSize=12;glass=0;strokeWidth=1;shadow=0;" parent="WIyWlLk6GJQsqaUBKTNV-1" vertex="1">
          <mxGeometry x="449" y="990" width="120" height="40" as="geometry" />
        </mxCell>
      </root>
    </mxGraphModel>
  </diagram>
</mxfile>
